HIERARCHY
ROOT Hips
{
	OFFSET 0.000000 0.000000 0.000000
	CHANNELS 6 Xposition Yposition Zposition Zrotation Yrotation Xrotation 
	JOINT LHipJoint
	{
		OFFSET 0.000000 0.000000 0.000000
		CHANNELS 3 Zrotation Yrotation Xrotation
		JOINT LeftUpLeg
		{
			OFFSET 1.363060 -1.794630 0.839290
			CHANNELS 3 Zrotation Yrotation Xrotation
			JOINT LeftLeg
			{
				OFFSET 2.448110 -6.726130 0.000000
				CHANNELS 3 Zrotation Yrotation Xrotation
				JOINT LeftFoot
				{
					OFFSET 2.562200 -7.039590 0.000000
					CHANNELS 3 Zrotation Yrotation Xrotation
					JOINT LeftToeBase
					{
						OFFSET 0.157640 -0.433110 2.322550
						CHANNELS 3 Zrotation Yrotation Xrotation
						End Site
						{
							OFFSET 0.000000 0.000000 0.000000
						}
					}
				}
			}
		}
	}
	JOINT RHipJoint
	{
		OFFSET 0.000000 0.000000 0.000000
		CHANNELS 3 Zrotation Yrotation Xrotation
		JOINT RightUpLeg
		{
			OFFSET -1.305520 -1.794630 0.839290
			CHANNELS 3 Zrotation Yrotation Xrotation
			JOINT RightLeg
			{
				OFFSET -2.542530 -6.985550 0.000000
				CHANNELS 3 Zrotation Yrotation Xrotation
				JOINT RightFoot
				{
					OFFSET -2.568260 -7.056230 0.000000
					CHANNELS 3 Zrotation Yrotation Xrotation
					JOINT RightToeBase
					{
						OFFSET -0.164730 -0.452590 2.363150
						CHANNELS 3 Zrotation Yrotation Xrotation
						End Site
						{
							OFFSET 0.000000 0.000000 0.000000
						}
					}
				}
			}
		}
	}
	JOINT LowerBack
	{
		OFFSET 0.000000 0.000000 0.000000
		CHANNELS 3 Zrotation Yrotation Xrotation
		JOINT Spine
		{
			OFFSET 0.028270 2.035590 -0.193380
			CHANNELS 3 Zrotation Yrotation Xrotation
			JOINT Spine1
			{
				OFFSET 0.056720 2.048850 -0.042750
				CHANNELS 3 Zrotation Yrotation Xrotation
				JOINT Neck
				{
					OFFSET 0.000000 0.000000 0.000000
					CHANNELS 3 Zrotation Yrotation Xrotation
					JOINT Neck1
					{
						OFFSET -0.054170 1.746240 0.172020
						CHANNELS 3 Zrotation Yrotation Xrotation
						JOINT Head
						{
							OFFSET 0.104070 1.761360 -0.123970
							CHANNELS 3 Zrotation Yrotation Xrotation
							End Site
							{
								OFFSET 0.000000 0.000000 0.000000
							}
						}
					}
				}
				JOINT LeftShoulder
				{
					OFFSET 0.000000 0.000000 0.000000
					CHANNELS 3 Zrotation Yrotation Xrotation
					JOINT LeftArm
					{
						OFFSET 3.362410 1.200890 -0.311210
						CHANNELS 3 Zrotation Yrotation Xrotation
						JOINT LeftForeArm
						{
							OFFSET 4.983000 -0.000000 -0.000000
							CHANNELS 3 Zrotation Yrotation Xrotation
							JOINT LeftHand
							{
								OFFSET 3.483560 -0.000000 -0.000000
								CHANNELS 3 Zrotation Yrotation Xrotation
								JOINT LeftFingerBase
								{
									OFFSET 0.000000 0.000000 0.000000
									CHANNELS 3 Zrotation Yrotation Xrotation
									JOINT LeftHandIndex1
									{
										OFFSET 0.715260 -0.000000 -0.000000
										CHANNELS 3 Zrotation Yrotation Xrotation
										End Site
										{
											OFFSET 0.000000 0.000000 0.000000
										}
									}
								}
								JOINT LThumb
								{
									OFFSET 0.000000 0.000000 0.000000
									CHANNELS 3 Zrotation Yrotation Xrotation
									End Site
									{
										OFFSET 0.000000 0.000000 0.000000
									}
								}
							}
						}
					}
				}
				JOINT RightShoulder
				{
					OFFSET 0.000000 0.000000 0.000000
					CHANNELS 3 Zrotation Yrotation Xrotation
					JOINT RightArm
					{
						OFFSET -3.136600 1.374050 -0.404650
						CHANNELS 3 Zrotation Yrotation Xrotation
						JOINT RightForeArm
						{
							OFFSET -5.241900 -0.000000 -0.000000
							CHANNELS 3 Zrotation Yrotation Xrotation
							JOINT RightHand
							{
								OFFSET -3.444170 -0.000000 -0.000000
								CHANNELS 3 Zrotation Yrotation Xrotation
								JOINT RightFingerBase
								{
									OFFSET 0.000000 0.000000 0.000000
									CHANNELS 3 Zrotation Yrotation Xrotation
									JOINT RightHandIndex1
									{
										OFFSET -0.622530 -0.000000 -0.000000
										CHANNELS 3 Zrotation Yrotation Xrotation
										End Site
										{
											OFFSET 0.000000 0.000000 0.000000
										}
									}
								}
								JOINT RThumb
								{
									OFFSET 0.000000 0.000000 0.000000
									CHANNELS 3 Zrotation Yrotation Xrotation
									End Site
									{
										OFFSET 0.000000 0.000000 0.000000
									}
								}
							}
						}
					}
				}
			}
		}
	}
}
MOTION
Frames: 4
Frame Time: 0.008333
-34.191050 18.077180 -1.524490 -55.089641 85.510710 -56.750667 -3.084778 3.030046 2.809504 -4.657130 -10.915595 -3.182713 -1.655526 6.500930 17.235426 -6.747071 19.238973 2.463274 0.002100 -0.298100 -0.819100 2.545749 -3.417131 2.984740 15.402304 9.613764 0.315242 2.814659 -4.220769 12.713941 5.391078 -18.426857 -5.943570 -0.000100 -0.051500 0.141600 1.063460 -0.583935 5.631924 4.203323 -0.736741 3.873370 0.607741 0.144616 -2.723252 -2.240343 2.431286 -10.540102 3.424386 3.028308 4.811023 -0.711100 1.481500 2.295100 -1.061270 -5.770408 0.465337 -84.083445 9.829798 21.642859 22.076923 -32.201016 -8.062468 0.505004 -1.407667 2.536481 -1.660595 9.761511 -0.430400 -7.125000 0.000000 0.000000 -25.291500 39.748000 3.540000 1.721500 6.572536 2.211854 73.825617 -8.104936 33.330036 -25.683986 33.078753 -7.830566 0.638279 0.036231 8.126210 -3.328307 -13.614130 0.940200 7.125000 0.000000 0.000000 21.041500 -42.713300 1.247300 
-34.191356 18.076568 -1.523163 -55.651055 85.482423 -57.307702 -3.078071 3.030943 2.807864 -4.605650 -10.936950 -3.198008 -1.650101 6.508203 17.253991 -6.744610 19.229799 2.468878 0.002100 -0.294700 -0.809700 2.547504 -3.415072 2.986063 15.457867 9.529414 0.307634 2.815473 -4.210153 12.685448 5.394771 -18.439865 -5.827425 -0.000100 0.071300 -0.195900 1.089144 -0.581490 5.611487 4.234927 -0.730625 3.884339 0.621340 0.148058 -2.699286 -2.239510 2.436057 -10.513202 3.399598 3.034355 4.785332 -0.717800 1.482900 2.283600 -1.061755 -5.772143 0.465217 -84.103493 9.816201 21.624832 22.076988 -32.207815 -8.073133 0.522558 -1.394164 2.550912 -1.868226 9.012107 -0.441800 -7.125000 0.000000 0.000000 -25.210300 39.036500 4.008100 1.721663 6.570900 2.212364 73.800525 -8.114220 33.331862 -25.704225 33.097801 -7.842956 0.639722 0.036701 8.103921 -3.338297 -13.647673 0.945200 7.125000 0.000000 0.000000 21.043500 -42.746100 1.229500 
-34.189927 18.077691 -1.522245 -55.757695 85.508465 -57.422303 -3.078623 3.033677 2.812719 -4.616311 -10.906495 -3.193581 -1.654670 6.498322 17.228087 -6.729602 19.202048 2.506866 0.002200 -0.302900 -0.832100 2.546958 -3.418299 2.983025 15.443125 9.630407 0.344826 2.814193 -4.220889 12.709768 5.411140 -18.486523 -5.871159 -0.000100 0.059700 -0.163900 1.075964 -0.580987 5.594891 4.229363 -0.731880 3.893375 0.624371 0.147560 -2.681052 -2.216799 2.437246 -10.497023 3.374204 3.035484 4.784753 -0.728200 1.483200 2.281200 -1.062060 -5.772470 0.464894 -84.108100 9.813625 21.618450 22.083026 -32.205103 -8.065852 0.505782 -1.407294 2.559990 -1.678654 9.740672 -0.433300 -7.125000 0.000000 0.000000 -25.299700 39.726800 3.555700 1.721078 6.572081 2.212755 73.802159 -8.110825 33.329854 -25.698854 33.092442 -7.839762 0.639458 0.035630 8.117016 -3.352334 -13.639957 0.947900 7.125000 0.000000 0.000000 21.028500 -42.739400 1.232300 
-34.189008 18.076772 -1.520816 -56.159326 85.553684 -57.820353 -3.083159 3.036637 2.812689 -4.626705 -10.950630 -3.174203 -1.661886 6.488162 17.193877 -6.729352 19.206556 2.537142 0.002000 -0.290300 -0.797500 2.544730 -3.416266 2.983511 15.437268 9.599824 0.336917 2.808677 -4.232018 12.744668 5.417932 -18.506292 -5.920321 0.000000 0.041400 -0.113700 1.053530 -0.588682 5.583680 4.226274 -0.745381 3.893485 0.634588 0.141535 -2.671699 -2.252721 2.450315 -10.465693 3.413214 3.048185 4.755504 -0.711600 1.489000 2.267300 -1.061844 -5.775872 0.464701 -84.103784 9.811539 21.623615 22.073992 -32.195692 -8.059697 0.505221 -1.405701 2.548245 -1.637477 9.699462 -0.423500 -7.125000 0.000000 0.000000 -25.250800 39.691900 3.571300 1.721930 6.568667 2.212004 73.798289 -8.134628 33.331160 -25.721618 33.113855 -7.852247 0.639449 0.037713 8.094929 -3.323893 -13.648465 0.941800 7.125000 0.000000 0.000000 21.056700 -42.746300 1.230300 
